<svg height="600" viewBox="0 0 1015 600" width="1015" xmlns="http://www.w3.org/2000/svg" xmlns:xlink="http://www.w3.org/1999/xlink"><mask id="a" fill="#fff"><path d="m.493.101h740.427v440.075h-740.427z" fill="#fff" fill-rule="evenodd"/></mask><g fill="none" fill-rule="evenodd"><g transform="translate(2)"><path d="m751.21 19.9011391c-6.895 0-12.484-4.264-12.484-9.524 0-5.26099999 5.589-9.52499999 12.484-9.52499999h-54.469c6.895 0 12.484 4.264 12.484 9.52499999 0 5.26-5.589 9.524-12.484 9.524z" fill="#fff"/><path d="m921.208 544.776139v-485.6959999c0-8.793-7.2-15.987-15.99-15.987h-799.832c-8.792 0-15.986 7.194-15.986 15.987v485.6959999z" fill="#fff" stroke="#979797"/><path d="m91.4 542.776139h827.808v-483.6959999c0-7.713-6.28-13.987-13.99-13.987h-799.832c-7.712 0-13.986 6.274-13.986 13.987zm829.808 4h-831.808c-1.105 0-2-.896-2-2v-485.6959999c0-9.918 8.069-17.987 17.986-17.987h799.832c9.92 0 17.99 8.069 17.99 17.987v485.6959999c0 1.104-.9 2-2 2z" fill="#5d7183" stroke="#587085" stroke-width="4"/><path d="m962.968 595.970139h-915.39c-25.053 0-45.436-20.382-45.436-45.436v-2.727c0-1.471 1.193-2.664 2.664-2.664h1000.992c1.47 0 2.66 1.193 2.66 2.664v2.667c0 25.088-20.4 45.496-45.49 45.496" fill="#fff"/><path d="m4.806 547.143139c-.366 0-.664.298-.664.665v2.726c0 23.951 19.485 43.437 43.436 43.437h915.39c23.98 0 43.5-19.513 43.5-43.496v-2.667c0-.367-.3-.665-.67-.665zm958.162 50.828h-915.39c-26.156 0-47.436-21.28-47.436-47.437v-2.726c0-2.573 2.092-4.665 4.664-4.665h1000.992c2.57 0 4.67 2.092 4.67 4.665v2.667c0 26.189-21.31 47.496-47.5 47.496z" fill="#5d7183" stroke="#587085" stroke-width="4"/><path d="m392.199 547.157139c1.945 5.65 7.264 9.545 13.429 9.545h199.348c6.165 0 11.484-3.895 13.431-9.545zm212.777 13.545h-199.348c-8.945 0-16.499-6.399-17.964-15.217-.096-.58.068-1.172.448-1.621.38-.448.938-.707 1.526-.707h231.33c.588 0 1.146.259 1.526.707.379.449.543 1.041.447 1.621-1.465 8.818-9.021 15.217-17.965 15.217z" fill="#5d7183"/><path d="m135.091 521.765139h740.427v-440.0749999h-740.427z" fill="#f0f9fc"/><g fill="#fff" transform="translate(134.598 81.589139)"><path d="m-248.247 529.224-54.559-25.391 1146.926-533.775 54.56 25.392z" mask="url(#a)"/><path d="m-81.213 606.961-91.973-42.804 1146.926-533.775 91.98 42.804z" mask="url(#a)"/></g><path d="m137.092 519.765139h736.426v-436.0739999h-736.426zm738.426 4h-740.426c-1.105 0-2-.896-2-2v-440.0739999c0-1.105.895-2 2-2h740.426c1.1 0 2 .895 2 2v440.0739999c0 1.104-.9 2-2 2z" fill="#5d7183"/><path d="m502.421 455.136139c-.575 0-1.15-.219-1.589-.658l-20.212-20.211c-.878-.878-.878-2.3 0-3.178.878-.877 2.3-.877 3.178 0l18.623 18.622 37.55-37.55c.878-.878 2.3-.878 3.178 0 .877.878.877 2.3 0 3.178l-39.139 39.139c-.439.439-1.014.658-1.589.658" fill="#fff"/></g><rect fill="#fff" height="121" rx="5" stroke="#587085" stroke-width="4" width="495" x="271" y="217"/><rect height="8" rx="4" stroke="#979797" stroke-width="2" width="447" x="297" y="278"/><rect fill="#5d7183" height="9" rx="4.5" stroke="#979797" width="199" x="296.5" y="277.5"/><g transform="translate(184 247)"><g transform="translate(18 29)"><path d="m50.7075194 189.45781 108.1715566-28.947933c4.387117-1.174246 6.990431-5.677542 5.815371-10.059109l-38.730532-144.36102818c-1.175734-4.3815669-5.684734-6.98158802-10.071851-5.80801408l-108.17223012 28.94793306c-4.38644355 1.1742465-6.99043145 5.6775423-5.81469758 10.0591092l38.7305323 144.361028c1.1750604 4.381567 5.6847338 6.981588 10.0718508 5.808014" fill="#fff"/><path d="m92.3928742 5.75548982c-16.6245806 4.44882038-33.2491613 8.89831338-49.8744153 13.34713378-9.7095686 2.5980035-19.4191371 5.1966796-29.129379 7.7953557-6.51838715 1.7445563-15.05626215 3.8986866-13.10613311 12.8413873 2.74809274 12.6006197 6.72242338 25.0552993 10.06309681 37.5079613 6.1210887 22.8157571 12.2421774 45.6315141 18.3632661 68.4465981 3.4181129 12.739835 6.3298387 25.756754 10.2873347 38.34325 1.6565322 5.269314 6.8079435 7.39856 11.9607016 6.168493 1.4726976-.351736 2.9299072-.784176 4.3918306-1.175591 8.1910807-2.191792 16.3821613-4.383585 24.573242-6.575377 21.8446774-5.846348 43.6893544-11.692025 65.5340324-17.537701 4.534589-1.213926 9.125742-2.30276 13.623968-3.646486 5.144004-1.535397 8.425419-6.017845 7.195814-11.419647-.344101-1.510514-.806044-3.003543-1.207383-4.498588-5.150738-19.198191-10.300802-38.396381-15.45154-57.5945709-4.936601-18.3992183-9.872529-36.7984366-14.809129-55.1976549-.283496-1.0565528-.566992-2.1137782-.850488-3.170331-.28417-1.060588-3.539323-.1997429-3.25246.8702606 3.488819 13.0014507 6.976964 26.0035739 10.465109 39.0050246 5.731871 21.3644261 11.463068 42.7288526 17.194939 64.0926056 1.488859 5.548416 3.028222 11.08607 4.466577 16.647264 1.018835 3.940384.094274 8.198877-4.22079 9.761176-1.356875.491623-2.842367.760638-4.234932 1.133895-18.969314 5.076295-37.938629 10.152591-56.9079432 15.228887-10.2624194 2.745961-20.5248388 5.492595-30.7872581 8.239229-5.2167298 1.39551-10.5317742 3.288697-15.8522057 4.241679-7.0624838 1.265712-8.4671693-5.023838-9.820004-10.064489-1.8437339-6.87331-3.6874677-13.745947-5.531875-20.618585-5.8012298-21.625369-11.6031331-43.250066-17.4050363-64.8754362-4.4935121-16.7494895-8.98702417-33.4989789-13.48120966-50.2484683-1.36293548-5.0796585-2.58041935-10.8701866 4.10564113-13.0189366 6.69548793-2.1514402 13.67447173-3.6592641 20.46692743-5.4771268 19.8507782-5.3123556 39.7022298-10.6247113 59.5530081-15.93706691 1.3615887-.36451408 2.7231774-.72902817 4.0847661-1.09286972 1.9339677-.51785211 1.5454234-2.0438345-.4080726-1.52127465" fill="#5d7183"/></g><g fill="#5d7183"><path d="m134.480884 64.1511296c-13.729836 3.6198106-27.460339 7.2389656-41.1908413 10.8587763-1.8472604.4871435-1.6573364 1.3362025.2285752.8392243 13.7305021-3.6198106 27.4610051-7.2396213 41.1908411-10.8587763 1.847927-.4871435 1.658003-1.3368581-.228575-.8392243"/><path d="m140.309044 84.1067636c-27.21519 7.3700375-54.4297055 14.7400749-81.6448954 22.1101124-3.7978763 1.028805-7.5964271 2.057611-11.3943033 3.085734-1.9434603.526334-1.5400625 2.121698.4216114 1.590592 27.2145154-7.370037 54.4297053-14.7400747 81.6442203-22.1101121 3.798551-1.0281236 7.596427-2.0569291 11.394978-3.0857345 1.942786-.525652 1.539388-2.1216981-.421611-1.5905918"/><path d="m156.21839 145.090274c-27.193339 7.268076-54.387352 14.536152-81.580691 21.804228-3.795595 1.014572-7.590516 2.028472-11.3861111 3.043045-1.9823912.529809-1.4633701 2.505166.529806 1.971995 27.194013-7.268076 54.3873521-14.536152 81.5813651-21.804228 3.794921-1.0139 7.590516-2.028472 11.385437-3.043045 1.982391-.529809 1.464044-2.504494-.529806-1.971995"/><path d="m162.396398 165.126656c-27.234936 7.193076-54.469196 14.386152-81.7041324 21.579228-3.8006318 1.004103-7.6019387 2.007541-11.4025705 3.011643-1.9030161.502385-1.6174624 1.666186.3139066 1.155817 27.2349359-7.193076 54.4691963-14.386152 81.7041323-21.579228 3.800632-1.003438 7.601939-2.007541 11.402571-3.011643 1.903016-.502385 1.617462-1.666186-.313907-1.155817"/></g><path d="m146.498357 126.209627-83.924975 22.627211c-2.5191188.679502-5.1084005-.825449-5.7837186-3.360175l-2.6277364-9.866694c-.6746434-2.535404.8203665-5.140727 3.3394853-5.81955l83.9249747-22.627212c2.519119-.679502 5.109075.82477 5.783719 3.360175l2.627736 9.866694c.675318 2.534725-.820366 5.140727-3.339485 5.819551" fill="#eee"/><g fill="#5d7183" transform="translate(0 116)"><path d="m13.3144783 5.16854272c3.7433511-1.50727971 7.5303883-2.88866785 11.3608082-4.14571861.8734183-.28659763.6489204-1.22161462-.2430038-.92911097-3.9584444 1.29932547-7.8728993 2.72827265-11.7415445 4.285909-.9398575.37829643-.1016308 1.08080255.6237401.78892058"/><path d="m1.04948303 24.0185627c8.89681993-3.4189774 17.91108657-6.562553 27.03298717-9.4218798.8754842-.2745456.6528567-1.1347123-.2456262-.853032-9.2506933 2.8998522-18.39497936 6.0833825-27.4178322 9.5505909-.942947.3624458-.10088767 1.0054305.63047123.7243209"/><path d="m29.1959749 21.5392468c-3.0338064.9188755-6.0333049 1.9314113-9.000027 3.0349483-.9514341.3539591-.102924 1.0222859.6297966.7498733 2.8402114-1.0565591 5.7113613-2.0224125 8.6155938-2.9016965.8843497-.2679808.6561403-1.1561286-.2453634-.8831251"/></g><path d="m135.01398.92657637c-14.400282 3.85868376-22.945704 18.65975243-19.087678 33.05997153 3.8587 14.3995443 18.659833 22.9456043 33.060115 19.0869205 14.400281-3.8586838 22.945703-18.6597525 19.087003-33.0599715-3.858026-14.40021911-18.659834-22.94560429-33.05944-19.08692053" fill="#96e296"/><g fill="#fff"><path d="m127.712907 31.8706869c9.803123-2.5666212 19.60557-5.1332424 29.408016-7.6998637 2.997973-.7847963 2.178622-3.8307582-.834236-3.0413337-9.802447 2.5666212-19.604893 5.1332424-29.40734 7.6998637-2.997973.7847963-2.179299 3.830097.83356 3.0413337"/><path d="m135.046096 12.3950733c2.652486 9.8426056 5.304972 19.6858906 7.957458 29.5284963.57122 2.1175732 5.523621.8084415 4.95035-1.3186429-2.652486-9.843285-5.304972-19.6858906-7.958141-29.5284963-.570537-2.11757325-5.522938-.8084415-4.949667 1.3186429"/></g></g><path d="m50.3629831 1.37264118c-21.339-5.717-43.27199998 6.946-48.98999998 28.28400002v.001c-5.718 21.338 6.946 43.272 28.28399998 48.989 21.339 5.718 43.273-6.945 48.99-28.284 5.718-21.339-6.945-43.27200002-28.284-48.99000002" fill="#5d7183" transform="translate(478 166)"/><g fill="#fff" transform="translate(488 182)"><path d="m46.298115 26.9195367c1.2673321 1.7718907 2.5346642 3.5437814 3.8010369 5.315672.8720704 1.2179203 2.6660984.7810576 3.6657654.0702647 1.8199311-1.2942949 3.6398622-2.5885897 5.4607527-3.8828846.8691922-.6181251 1.0898481-1.897145.2302496-2.6130296-.9555358-.7973508-2.4310519-.3584514-3.3271065.2780036-1.8199312 1.2942948-3.6398623 2.5885897-5.4597934 3.8828845 1.2212822.0234216 2.4435237.0468431 3.6648059.0702647-1.2663727-1.7718907-2.5337048-3.5437814-3.8010369-5.3156721-1.3076258-1.8278987-5.7082711.1344193-4.2346737 2.1944968"/><path d="m54.9960297 30.4701381c3.4340608-11.6086568-2.1346311-23.99631023-13.7495654-28.64117836-10.4210576-4.16702995-22.3485519-.92656435-30.0201063 6.80919397-1.32402467 1.33513607 3.5488369.99281923 4.5705494-.03714288 7.9625939-8.02888594 20.3983825-7.74579694 28.5146944-.05420854 6.2378777 5.91174161 8.1357829 14.56201791 5.7562278 22.60495791-.446807 1.5078003 4.4803682.8342091 4.9282001-.6816221"/><path d="m4.65993443 18.9253924c-2.63784375 11.2110017 2.78312233 22.6851866 13.56071687 27.6725597 10.7433503 4.9712393 23.2466466 1.9189186 31.2276287-6.324465 2.163613-2.2345368-2.626429-3.1339983-4.2110032-1.497422-7.2940219 7.534503-18.9505518 8.7294155-27.5427415 2.4180592-7.2628908-5.335259-9.94016732-14.1634943-7.95088861-22.6176262.56866181-2.4160425-4.56382252-1.8604334-5.08371226.3488943"/><path d="m13.7384413 22.1626126c-1.2706725-1.8226322-2.541345-3.6452645-3.81201755-5.4678967-.8214643-1.1794735-2.73949687-.6400162-3.65041805.0251398-1.82472807 1.3313595-3.65041804 2.6616715-5.47514612 3.993031-.81473098.5949742-1.16678711 1.7618778-.28664679 2.4668384.93015922.7437178 2.4663167.2796798 3.32144757-.3446241 1.82568997-1.3313595 3.65041804-2.662719 5.47514611-3.9940785-1.21680601.0083799-2.43457393.0167598-3.65137994.0240922 1.27067252 1.8226323 2.54134505 3.6452645 3.81201758 5.4678967 1.19660609 1.7168357 5.64347899-.1969281 4.26699719-2.1703988"/></g></g></svg>